<svg xmlns="http://www.w3.org/2000/svg" viewBox="0 0 200 40">
  <path fill="#000000" d="M188.703 15.91h1.847v1.299l.035.035a3.263 3.263 0 011.163-1.154 3.09 3.09 0 011.589-.421c.968 0 1.731.253 2.291.754.559.502.839 1.257.839 2.26v6.069h-1.949v-5.559c-.021-.692-.173-1.199-.448-1.514-.271-.311-.696-.471-1.278-.471-.333 0-.63.062-.892.182a1.868 1.868 0 00-.666.496c-.183.21-.324.459-.427.742a2.58 2.58 0 00-.155.906v5.217h-1.948V15.91zM185.179 19.553a3.023 3.023 0 00-.2-.888 2.408 2.408 0 00-.443-.746 2.205 2.205 0 00-.684-.512 2.001 2.001 0 00-.897-.195c-.342 0-.652.06-.932.179a2.08 2.08 0 00-.719.496 2.514 2.514 0 00-.674 1.666h4.549zm-4.55 1.283c0 .342.049.674.146.994.093.317.239.597.435.839.191.237.439.429.737.568.293.145.647.216 1.056.216.573 0 1.03-.123 1.381-.367.347-.244.604-.612.777-1.105h1.846a3.752 3.752 0 01-.527 1.286 3.749 3.749 0 01-.91.947 3.89 3.89 0 01-1.186.581 4.778 4.778 0 01-1.381.197c-.692 0-1.309-.115-1.846-.344a3.745 3.745 0 01-1.358-.956 4.15 4.15 0 01-.839-1.47 6.02 6.02 0 01-.28-1.883c0-.627.098-1.223.298-1.788a4.499 4.499 0 01.856-1.485c.368-.43.816-.768 1.341-1.021.528-.251 1.118-.377 1.779-.377.693 0 1.318.146 1.874.439.55.288 1.012.675 1.376 1.153.363.479.63 1.03.794 1.649a5.07 5.07 0 01.129 1.925h-6.498zM164.138 15.91h1.852v1.232h.049c.146-.218.311-.418.479-.6.168-.182.359-.337.572-.462.213-.124.453-.226.728-.297.275-.075.586-.115.941-.115.537 0 1.034.119 1.496.359.462.242.79.612.98 1.114a3.984 3.984 0 011.146-1.079c.436-.262.977-.395 1.629-.395.933 0 1.66.23 2.18.688.52.453.777 1.221.777 2.291v6.104h-1.949v-5.164c0-.354-.013-.675-.035-.968a2.034 2.034 0 00-.195-.754 1.093 1.093 0 00-.488-.484c-.218-.115-.515-.173-.888-.173-.662 0-1.141.207-1.438.617-.298.412-.444.989-.444 1.744v5.182h-1.948v-5.679c0-.615-.111-1.079-.333-1.394-.222-.311-.63-.471-1.225-.471-.249 0-.493.053-.724.155a1.77 1.77 0 00-.617.444 2.304 2.304 0 00-.431.719 2.78 2.78 0 00-.16.975v5.25h-1.953V15.91zM160.618 19.553a3.023 3.023 0 00-.2-.888 2.408 2.408 0 00-.443-.746 2.205 2.205 0 00-.684-.512 2.001 2.001 0 00-.897-.195c-.342 0-.652.06-.932.179a2.08 2.08 0 00-.719.496 2.514 2.514 0 00-.674 1.666h4.549zm-4.55 1.283c0 .342.049.674.146.994.093.317.239.597.435.839.191.237.439.429.737.568.293.145.647.216 1.056.216.573 0 1.03-.123 1.381-.367.347-.244.604-.612.777-1.105h1.846a3.752 3.752 0 01-.527 1.286 3.749 3.749 0 01-.91.947c-.355.257-.75.45-1.186.581a4.778 4.778 0 01-1.381.197c-.692 0-1.309-.115-1.846-.344a3.745 3.745 0 01-1.358-.956 4.019 4.019 0 01-.839-1.47 5.904 5.904 0 01-.284-1.883c0-.627.102-1.223.302-1.788a4.499 4.499 0 01.856-1.485c.368-.43.816-.768 1.341-1.021.523-.251 1.118-.377 1.779-.377.693 0 1.318.146 1.874.439.55.288 1.012.675 1.376 1.153.363.479.63 1.03.794 1.649a5.07 5.07 0 01.129 1.925h-6.498zM148.73 15.91h1.829v1.712h.035a1.85 1.85 0 01.333-.702c.164-.226.364-.437.595-.625.235-.189.497-.338.781-.453s.577-.173.875-.173c.226 0 .381.009.47.018.085.013.174.024.263.035v1.882c-.138-.021-.275-.044-.418-.058a2.88 2.88 0 00-.422-.026c-.328 0-.639.062-.928.195a2.137 2.137 0 00-.763.582 2.803 2.803 0 00-.511.947c-.129.377-.191.812-.191 1.303v4.205h-1.948V15.91zM139.014 23.009h3.782c.647 0 1.154-.167 1.514-.504.359-.338.537-.815.537-1.43 0-.604-.178-1.069-.537-1.394s-.866-.486-1.514-.486h-3.782v3.814zm0-5.357h3.489c.515 0 .94-.145 1.282-.435s.516-.71.516-1.256c0-.617-.155-1.048-.462-1.301-.311-.249-.755-.376-1.336-.376h-3.489v3.368zm-2.135-5.113h5.93c1.097 0 1.976.251 2.637.755.662.501.995 1.261.995 2.272 0 .617-.156 1.146-.458 1.585s-.732.776-1.291 1.017v.035c.754.157 1.322.515 1.713 1.07.387.55.582 1.244.582 2.077 0 .479-.089.928-.258 1.342a2.753 2.753 0 01-.804 1.077c-.368.302-.834.542-1.402.719-.572.178-1.252.267-2.037.267h-5.606V12.539zM125.093 15.91h1.47v-2.652h1.948v2.652h1.763v1.454h-1.763v4.722c0 .205.01.381.027.529a.98.98 0 00.119.376.56.56 0 00.28.23c.129.054.302.077.515.077.138 0 .275-.002.413-.009.138-.004.271-.026.408-.058v1.502l-.63.069a6.022 6.022 0 01-.635.034c-.516 0-.928-.047-1.239-.143-.314-.098-.559-.242-.736-.432a1.436 1.436 0 01-.359-.707 5.127 5.127 0 01-.111-.977v-5.216h-1.47V15.91zM122.63 14.457h-1.953v-1.85h1.953v1.85zm-.786 5.863c-.297.195-.661.312-1.097.355-.435.037-.865.098-1.3.178a4.368 4.368 0 00-.6.144c-.19.064-.364.149-.515.256-.146.11-.262.253-.349.431s-.129.391-.129.642c0 .215.062.399.188.548.127.146.275.262.453.351.178.084.373.144.581.178.214.035.404.052.573.052.217 0 .452-.029.701-.086.253-.057.488-.154.71-.29.227-.138.408-.311.555-.523.151-.209.227-.467.227-.777V20.32zm-4.108-7.713h1.95v1.85h-1.95v-1.85zm6.057 10.177c0 .242.03.413.093.515.062.103.187.154.368.154h.204c.08 0 .174-.01.275-.034v1.352c-.07.022-.159.047-.266.076a5.092 5.092 0 01-.675.13 3.57 3.57 0 01-.293.016c-.399 0-.729-.08-.99-.24-.262-.159-.435-.437-.515-.836a3.432 3.432 0 01-1.425.818 5.64 5.64 0 01-1.634.258 4.02 4.02 0 01-1.147-.163 3.002 3.002 0 01-.968-.478c-.28-.212-.504-.479-.668-.804s-.246-.706-.246-1.137c0-.548.1-.994.297-1.336.2-.342.464-.61.788-.804.327-.192.69-.333 1.094-.417.406-.086.815-.153 1.224-.2.354-.066.692-.115 1.008-.144a4.85 4.85 0 00.848-.145c.248-.068.439-.173.586-.317.138-.145.213-.357.213-.642 0-.251-.062-.457-.182-.617a1.178 1.178 0 00-.444-.365 1.848 1.848 0 00-.591-.172 4.625 4.625 0 00-.616-.041c-.546 0-.999.112-1.35.339-.355.23-.555.581-.6 1.061h-1.951c.035-.568.171-1.043.411-1.42.239-.373.544-.675.914-.906.37-.226.79-.386 1.261-.477.466-.091.945-.14 1.434-.14.436 0 .861.049 1.283.14s.804.237 1.137.441c.337.207.607.471.816.797.204.326.307.722.307 1.188v4.55zM109.714 15.91h1.473v-2.652h1.948v2.652h1.763v1.454h-1.763v4.722c0 .205.009.381.024.529a.98.98 0 00.122.376.548.548 0 00.282.23c.124.054.297.077.513.077.138 0 .272-.002.411-.009.137-.004.272-.026.41-.058v1.502l-.633.069a5.955 5.955 0 01-.636.034c-.512 0-.923-.047-1.237-.143-.313-.098-.56-.242-.735-.432a1.428 1.428 0 01-.359-.707 5.214 5.214 0 01-.11-.977v-5.216h-1.473V15.91zM106.448 24.755h1.951V15.91h-1.951v8.845zm0-10.366h1.951v-1.85h-1.951v1.85zM98.906 21.914c.056.571.273.968.65 1.198.373.227.826.341 1.35.341.184 0 .391-.015.624-.041.235-.028.455-.086.659-.164.207-.079.373-.195.504-.352.131-.152.191-.356.18-.605a.849.849 0 00-.275-.616 1.856 1.856 0 00-.655-.387 6.683 6.683 0 00-.917-.248 31.729 31.729 0 01-1.043-.223 8.668 8.668 0 01-1.052-.291 3.428 3.428 0 01-.908-.459 2.146 2.146 0 01-.639-.745c-.16-.303-.24-.675-.24-1.119 0-.479.115-.883.351-1.207.233-.324.528-.586.888-.786a3.9 3.9 0 011.199-.419 7.2 7.2 0 011.256-.121c.457 0 .892.052 1.309.146.415.098.792.255 1.13.47.335.218.615.498.837.849.222.348.362.768.419 1.256h-2.038c-.089-.466-.304-.781-.639-.941a2.7 2.7 0 00-1.154-.236c-.137 0-.299.009-.488.032a2.164 2.164 0 00-.53.129 1.125 1.125 0 00-.419.275.646.646 0 00-.169.466c0 .242.083.436.247.583.164.149.382.27.65.367s.573.182.915.248c.342.068.697.146 1.061.223.355.08.702.178 1.043.293.342.112.648.266.914.461.269.191.486.439.65.737.165.293.249.661.249 1.092 0 .524-.12.971-.359 1.335-.24.365-.55.66-.932.889a4.196 4.196 0 01-1.274.498 6.49 6.49 0 01-1.385.152 6.022 6.022 0 01-1.549-.188 3.577 3.577 0 01-1.23-.572 2.73 2.73 0 01-.823-.959c-.2-.382-.304-.835-.315-1.358h1.948zM91.329 15.91h1.829v1.712h.036c.056-.24.167-.476.333-.702a3.38 3.38 0 01.597-.625 3.05 3.05 0 01.781-.453c.284-.115.575-.173.872-.173.227 0 .384.009.471.018.084.013.173.024.264.035v1.882c-.138-.021-.275-.044-.42-.058a2.848 2.848 0 00-.419-.026 2.167 2.167 0 00-1.694.777 2.914 2.914 0 00-.513.947 4.17 4.17 0 00-.188 1.303v4.205h-1.949V15.91zM87.806 19.553a3.088 3.088 0 00-.2-.888 2.403 2.403 0 00-.441-.746 2.24 2.24 0 00-.684-.512 2.01 2.01 0 00-.899-.195c-.344 0-.655.06-.935.179-.28.117-.517.284-.717.496-.2.21-.359.459-.479.742-.12.284-.184.593-.195.924h4.55zm-4.55 1.283c0 .342.047.674.145.994.095.317.244.597.437.839.193.237.437.429.735.568.297.145.65.216 1.061.216.57 0 1.028-.123 1.376-.367.349-.244.608-.612.777-1.105h1.849a3.7 3.7 0 01-.531 1.286 3.73 3.73 0 01-2.095 1.528 4.734 4.734 0 01-1.376.197c-.697 0-1.312-.115-1.849-.344a3.762 3.762 0 01-1.358-.956 4.09 4.09 0 01-.839-1.47 5.99 5.99 0 01-.282-1.883c0-.627.1-1.223.299-1.788a4.529 4.529 0 01.854-1.485c.371-.43.819-.768 1.343-1.021.526-.251 1.117-.377 1.78-.377.692 0 1.318.146 1.873.439a4.047 4.047 0 011.374 1.153c.366.479.632 1.03.797 1.649a5.05 5.05 0 01.128 1.925h-6.498zM71.897 15.91h2.122l2.242 6.79h.033l2.155-6.79h2.017l-3.162 8.842h-2.191zM68.612 24.755h1.951V15.91h-1.951v8.845zm0-10.366h1.951v-1.85h-1.951v1.85zM58.66 15.91h1.847v1.299l.033.035a3.295 3.295 0 011.166-1.154 3.092 3.092 0 011.589-.421c.97 0 1.733.253 2.293.754.559.502.839 1.257.839 2.26v6.069h-1.951v-5.559c-.022-.692-.171-1.199-.446-1.514-.273-.311-.699-.471-1.281-.471-.333 0-.628.062-.892.182-.26.117-.484.284-.666.496-.182.21-.324.459-.426.742a2.626 2.626 0 00-.155.906v5.217h-1.95V15.91zM46.362 12.539h2.14v7.117c0 .408.018.828.058 1.248.042.424.155.801.344 1.139.186.337.473.612.854.83.381.216.921.324 1.616.324.694 0 1.234-.108 1.616-.324.382-.218.668-.493.854-.83.188-.338.302-.715.344-1.139.04-.42.058-.84.058-1.248v-7.117h2.14v7.817c0 .785-.12 1.474-.359 2.055a3.918 3.918 0 01-1.019 1.461 4.278 4.278 0 01-1.581.883c-.617.192-1.3.289-2.053.289s-1.436-.097-2.053-.289a4.266 4.266 0 01-1.58-.883 3.94 3.94 0 01-1.019-1.461c-.24-.581-.359-1.27-.359-2.055v-7.817z"/>
  <path fill="#d7193a" d="M3.533 3.227h3.05v3.049h-3.05zM15.734 3.227h3.049v3.049h-3.049zM18.783 9.339h-3.052v9.232c-.002 3.367 2.774 6.006 6.104 6.006 3.358 0 6.095-2.641 6.095-6.006V3.227h-3.047v15.345c0 1.683-1.365 2.957-3.047 2.957-1.629 0-3.052-1.323-3.052-2.957V9.339z"/>
  <path fill="#d7193a" d="M9.635 9.325v9.248c0 6.721 5.469 12.104 12.194 12.104 6.723 0 12.202-5.383 12.202-12.104V3.23l-3.049-.002v15.345c0 5.041-4.11 9.052-9.153 9.052-5.045 0-9.145-4.011-9.145-9.052V9.325h3.047v-3.05h-3.047V3.227H9.635v3.049h3.047v3.047H9.635V6.275H6.583v3.05h3.052z"/>
  <path fill="#d7193a" d="M37.081 3.229v15.345c0 8.39-6.832 15.16-15.23 15.16-8.403 0-15.266-6.771-15.266-15.16v-9.24L3.536 9.33v9.243c0 10.067 8.236 18.2 18.315 18.2 10.081 0 18.279-8.133 18.279-18.2V3.235l-3.049-.006z"/>
</svg>